<?xml version="1.0" encoding="UTF-8"?>
<svg width="2153px" height="496px" viewBox="0 0 2153 496" version="1.1" xmlns="http://www.w3.org/2000/svg" xmlns:xlink="http://www.w3.org/1999/xlink">
    <!-- Generator: Sketch 59.1 (86144) - https://sketch.com -->
    <title>Group 6</title>
    <desc>Created with Sketch.</desc>
    <defs>
        <filter x="-5.7%" y="-5.8%" width="111.5%" height="111.5%" filterUnits="objectBoundingBox" id="filter-1">
            <feOffset dx="0" dy="6" in="SourceAlpha" result="shadowOffsetOuter1"></feOffset>
            <feGaussianBlur stdDeviation="5" in="shadowOffsetOuter1" result="shadowBlurOuter1"></feGaussianBlur>
            <feColorMatrix values="0 0 0 0 0   0 0 0 0 0   0 0 0 0 0  0 0 0 0.144587862 0" type="matrix" in="shadowBlurOuter1" result="shadowMatrixOuter1"></feColorMatrix>
            <feMerge>
                <feMergeNode in="shadowMatrixOuter1"></feMergeNode>
                <feMergeNode in="SourceGraphic"></feMergeNode>
            </feMerge>
        </filter>
        <linearGradient x1="100%" y1="0.0373057685%" x2="0%" y2="99.9626942%" id="linearGradient-2">
            <stop stop-color="#FAD961" offset="0%"></stop>
            <stop stop-color="#F76B1C" offset="100%"></stop>
        </linearGradient>
        <path d="M187.355845,27.4593616 L282.500046,27.4593616 C338.219968,27.4593616 358.425358,33.2609623 378.795728,44.1551556 C399.166098,55.0493489 415.152884,71.0361347 426.047077,91.4065051 C436.941271,111.776875 442.742871,131.982265 442.742871,187.702187 L442.742871,282.691305 C442.742871,338.411227 436.941271,358.616616 426.047077,378.986987 C415.152884,399.357357 399.166098,415.344143 378.795728,426.238336 C358.425358,437.13253 338.219968,442.93413 282.500046,442.93413 L187.355845,442.93413 C131.635924,442.93413 111.430534,437.13253 91.0601635,426.238336 C70.6897931,415.344143 54.7030072,399.357357 43.8088139,378.986987 C32.9146207,358.616616 27.11302,338.411227 27.11302,282.691305 L27.11302,187.702187 C27.11302,131.982265 32.9146207,111.776875 43.8088139,91.4065051 C54.7030072,71.0361347 70.6897931,55.0493489 91.0601635,44.1551556 C111.430534,33.2609623 131.635924,27.4593616 187.355845,27.4593616 Z" id="path-3"></path>
        <linearGradient x1="50%" y1="1.01442921%" x2="50%" y2="98.7962372%" id="linearGradient-5">
            <stop stop-color="#ECF6FF" stop-opacity="0.5" offset="0%"></stop>
            <stop stop-color="#182883" offset="100%"></stop>
        </linearGradient>
        <path d="M160.242825,-1.3728675e-14 L255.387027,-7.80671191e-16 C311.106948,4.53592444e-16 331.312338,5.8016007 351.682708,16.695794 C372.053078,27.5899873 388.039864,43.5767732 398.934058,63.9471435 C409.828251,84.3175139 415.629852,104.522904 415.629852,160.242825 L415.629852,255.231944 C415.629852,310.951865 409.828251,331.157255 398.934058,351.527625 C388.039864,371.897996 372.053078,387.884781 351.682708,398.778975 C331.312338,409.673168 311.106948,415.474769 255.387027,415.474769 L160.242825,415.474769 C104.522904,415.474769 84.3175139,409.673168 63.9471435,398.778975 C43.5767732,387.884781 27.5899873,371.897996 16.695794,351.527625 C5.8016007,331.157255 2.50772104e-15,310.951865 -4.31600128e-15,255.231944 L4.31600128e-15,160.242825 C-2.50772104e-15,104.522904 5.8016007,84.3175139 16.695794,63.9471435 C27.5899873,43.5767732 43.5767732,27.5899873 63.9471435,16.695794 C84.3175139,5.8016007 104.522904,7.97675555e-15 160.242825,-1.3728675e-14 Z" id="path-6"></path>
        <filter x="-1.2%" y="-1.2%" width="102.4%" height="102.4%" filterUnits="objectBoundingBox" id="filter-7">
            <feGaussianBlur stdDeviation="5" in="SourceAlpha" result="shadowBlurInner1"></feGaussianBlur>
            <feOffset dx="0" dy="0" in="shadowBlurInner1" result="shadowOffsetInner1"></feOffset>
            <feComposite in="shadowOffsetInner1" in2="SourceAlpha" operator="arithmetic" k2="-1" k3="1" result="shadowInnerInner1"></feComposite>
            <feColorMatrix values="0 0 0 0 1   0 0 0 0 1   0 0 0 0 1  0 0 0 1 0" type="matrix" in="shadowInnerInner1"></feColorMatrix>
        </filter>
        <linearGradient x1="100%" y1="0%" x2="0%" y2="100%" id="linearGradient-8">
            <stop stop-color="#FAD961" offset="0%"></stop>
            <stop stop-color="#F76B1C" offset="100%"></stop>
        </linearGradient>
        <linearGradient x1="76.758495%" y1="-20.9959891%" x2="28.499244%" y2="112.004069%" id="linearGradient-9">
            <stop stop-color="#000000" stop-opacity="0" offset="0%"></stop>
            <stop stop-color="#000000" offset="100%"></stop>
        </linearGradient>
        <circle id="path-10" cx="149.5" cy="149.5" r="149.5"></circle>
        <linearGradient x1="-19.0522206%" y1="-60.7654187%" x2="127.442094%" y2="162.116859%" id="linearGradient-11">
            <stop stop-color="#ECF6FF" stop-opacity="0.5" offset="0%"></stop>
            <stop stop-color="#182883" offset="100%"></stop>
        </linearGradient>
        <circle id="path-12" cx="149.5" cy="146.5" r="84.5"></circle>
        <linearGradient x1="-87.9248412%" y1="-109.1607%" x2="262.326833%" y2="420.737723%" id="linearGradient-13">
            <stop stop-color="#ECF6FF" stop-opacity="0.5" offset="0%"></stop>
            <stop stop-color="#182883" offset="100%"></stop>
        </linearGradient>
        <circle id="path-14" cx="225.5" cy="33.5" r="28.5"></circle>
        <path d="M700.1,286.6 C701.566674,286.733334 703.266657,286.833333 705.2,286.9 L706.197225,286.930556 C707.910188,286.976852 709.877767,287 712.1,287 C727.700078,287 739.266629,283.066706 746.8,275.2 C754.333371,267.333294 758.1,256.466736 758.1,242.6 C758.1,228.066594 754.500036,217.066704 747.3,209.6 C740.099964,202.133296 728.700078,198.4 713.1,198.4 C710.966656,198.4 708.766678,198.433333 706.5,198.5 C704.233322,198.566667 702.1,198.733332 700.1,199 L700.1,286.6 Z M790.3,242.6 C790.3,254.60006 788.433352,265.066622 784.7,274 C780.966648,282.933378 775.666701,290.333304 768.8,296.2 C761.933299,302.066696 753.566716,306.466652 743.7,309.4 C733.833284,312.333348 722.766728,313.8 710.5,313.8 C704.899972,313.8 698.366704,313.566669 690.9,313.1 C683.433296,312.633331 676.100036,311.666674 668.9,310.2 L668.9,175.2 C676.100036,173.86666 683.599961,172.966669 691.4,172.5 C699.200039,172.033331 705.899972,171.8 711.5,171.8 C723.366726,171.8 734.133285,173.13332 743.8,175.8 C753.466715,178.46668 761.766632,182.666638 768.7,188.4 C775.633368,194.133362 780.966648,201.466622 784.7,210.4 C788.433352,219.333378 790.3,230.066604 790.3,242.6 Z M810.5,312 L810.5,173.4 L904.1,173.4 L904.1,199.6 L841.7,199.6 L841.7,226.8 L897.1,226.8 L897.1,252.4 L841.7,252.4 L841.7,285.8 L908.7,285.8 L908.7,312 L810.5,312 Z M963.7,288.2 C968.100022,288.2 971.733319,287.833337 974.6,287.1 C977.466681,286.366663 979.766658,285.366673 981.5,284.1 C983.233342,282.833327 984.43333,281.333342 985.1,279.6 C985.76667,277.866658 986.1,275.933344 986.1,273.8 C986.1,269.266644 983.966688,265.500015 979.7,262.5 C975.433312,259.499985 968.100052,256.266684 957.7,252.8 C953.166644,251.2 948.633356,249.366677 944.1,247.3 C939.566644,245.233323 935.500018,242.633349 931.9,239.5 C928.299982,236.366651 925.366678,232.566689 923.1,228.1 C920.833322,223.633311 919.7,218.200032 919.7,211.8 C919.7,205.399968 920.899988,199.633359 923.3,194.5 C925.700012,189.366641 929.099978,185.000018 933.5,181.4 C937.900022,177.799982 943.233302,175.033343 949.5,173.1 C955.766698,171.166657 962.833294,170.2 970.7,170.2 C980.03338,170.2 988.099966,171.19999 994.9,173.2 C1001.70003,175.20001 1007.29998,177.399988 1011.7,179.8 L1002.7,204.4 C998.833314,202.39999 994.533357,200.633341 989.8,199.1 C985.066643,197.566659 979.3667,196.8 972.7,196.8 C965.233296,196.8 959.866683,197.833323 956.6,199.9 C953.333317,201.966677 951.7,205.133312 951.7,209.4 C951.7,211.933346 952.3,214.066658 953.5,215.8 C954.700006,217.533342 956.399989,219.099993 958.6,220.5 C960.800011,221.900007 963.333319,223.166661 966.2,224.3 L967.793392,224.921489 C970.228104,225.85868 972.863622,226.818177 975.7,227.8 C982.900036,230.46668 989.16664,233.099987 994.5,235.7 C999.83336,238.300013 1004.26665,241.333316 1007.8,244.8 C1011.33335,248.266684 1013.96666,252.33331 1015.7,257 C1017.43334,261.66669 1018.3,267.3333 1018.3,274 C1018.3,286.933398 1013.76671,296.966631 1004.7,304.1 C995.633288,311.233369 981.966758,314.8 963.7,314.8 C957.566636,314.8 952.033358,314.433337 947.1,313.7 C942.166642,312.966663 937.800019,312.066672 934,311 C930.199981,309.933328 926.933347,308.800006 924.2,307.6 C921.466653,306.399994 919.166676,305.266672 917.3,304.2 L926.1,279.4 C930.233354,281.666678 935.333303,283.7 941.4,285.5 C947.466697,287.300009 954.899956,288.2 963.7,288.2 Z M1036.5,173.4 L1067.7,173.4 L1067.7,312 L1036.5,312 L1036.5,173.4 Z M1161.5,197.4 C1146.96659,197.4 1136.4667,201.433293 1130,209.5 C1123.5333,217.566707 1120.3,228.59993 1120.3,242.6 C1120.3,249.400034 1121.09999,255.566639 1122.7,261.1 C1124.30001,266.633361 1126.69998,271.39998 1129.9,275.4 C1133.10002,279.40002 1137.09998,282.499989 1141.9,284.7 C1146.70002,286.900011 1152.29997,288 1158.7,288 L1160.72001,287.992 C1163.33334,287.970667 1165.62666,287.906667 1167.6,287.8 C1170.06668,287.666666 1172.23332,287.400002 1174.1,287 L1174.1,238.8 L1205.3,238.8 L1205.3,307.4 C1201.56665,308.866674 1195.56671,310.433325 1187.3,312.1 C1179.03329,313.766675 1168.83339,314.6 1156.7,314.6 C1146.29995,314.6 1136.86671,313.000016 1128.4,309.8 C1119.93329,306.599984 1112.70003,301.933364 1106.7,295.8 C1100.69997,289.666636 1096.06668,282.133378 1092.8,273.2 C1089.53332,264.266622 1087.9,254.066724 1087.9,242.6 C1087.9,230.999942 1089.69998,220.733378 1093.3,211.8 C1096.90002,202.866622 1101.8333,195.300031 1108.1,189.1 C1114.3667,182.899969 1121.73329,178.200016 1130.2,175 C1138.66671,171.799984 1147.69995,170.2 1157.3,170.2 C1163.83337,170.2 1169.73331,170.633329 1175,171.5 C1180.26669,172.366671 1184.79998,173.366661 1188.6,174.5 C1192.17649,175.566672 1195.16239,176.662856 1197.55778,177.78858 L1198,178 C1200.46668,179.2 1202.23333,180.13333 1203.3,180.8 L1194.3,205.8 C1190.03331,203.533322 1185.13336,201.566675 1179.6,199.9 C1174.06664,198.233325 1168.03337,197.4 1161.5,197.4 Z M1321.5,312 C1312.56662,296.133254 1302.90005,280.466744 1292.5,265 C1282.09995,249.533256 1271.03339,234.933402 1259.3,221.2 L1259.3,312 L1228.5,312 L1228.5,173.4 L1253.9,173.4 C1258.30002,177.800022 1263.16664,183.199968 1268.5,189.6 C1273.83336,196.000032 1279.26664,202.833297 1284.8,210.1 C1290.33336,217.366703 1295.83331,224.899961 1301.3,232.7 C1306.76669,240.500039 1311.89998,247.999964 1316.7,255.2 L1316.7,173.4 L1347.7,173.4 L1347.7,312 L1321.5,312 Z M1518.9,173.4 L1518.9,200 L1477.1,200 L1477.1,312 L1445.9,312 L1445.9,200 L1404.1,200 L1404.1,173.4 L1518.9,173.4 Z M1554.7,242.6 C1554.7,249.400034 1555.53332,255.533306 1557.2,261 C1558.86667,266.466694 1561.26665,271.166647 1564.4,275.1 C1567.53335,279.033353 1571.36664,282.066656 1575.9,284.2 C1580.43336,286.333344 1585.6333,287.4 1591.5,287.4 C1597.23336,287.4 1602.39998,286.333344 1607,284.2 C1611.60002,282.066656 1615.46665,279.033353 1618.6,275.1 C1621.73335,271.166647 1624.13332,266.466694 1625.8,261 C1627.46667,255.533306 1628.3,249.400034 1628.3,242.6 C1628.3,235.799966 1627.46667,229.633361 1625.8,224.1 C1624.13332,218.566639 1621.73335,213.833353 1618.6,209.9 C1615.46665,205.966647 1611.60002,202.933344 1607,200.8 C1602.39998,198.666656 1597.23336,197.6 1591.5,197.6 C1585.6333,197.6 1580.43336,198.699989 1575.9,200.9 C1571.36664,203.100011 1567.53335,206.166647 1564.4,210.1 C1561.26665,214.033353 1558.86667,218.766639 1557.2,224.3 C1555.53332,229.833361 1554.7,235.9333 1554.7,242.6 Z M1660.5,242.6 C1660.5,254.466726 1658.73335,264.899955 1655.2,273.9 C1651.66665,282.900045 1646.83336,290.433303 1640.7,296.5 C1634.56664,302.566697 1627.26671,307.133318 1618.8,310.2 C1610.33329,313.266682 1601.23338,314.8 1591.5,314.8 C1582.03329,314.8 1573.10004,313.266682 1564.7,310.2 C1556.29996,307.133318 1548.9667,302.566697 1542.7,296.5 C1536.4333,290.433303 1531.50002,282.900045 1527.9,273.9 C1524.29998,264.899955 1522.5,254.466726 1522.5,242.6 C1522.5,230.733274 1524.36665,220.300045 1528.1,211.3 C1531.83335,202.299955 1536.86663,194.733364 1543.2,188.6 C1549.53336,182.466636 1556.86662,177.866682 1565.2,174.8 C1573.53337,171.733318 1582.29995,170.2 1591.5,170.2 C1600.96671,170.2 1609.89996,171.733318 1618.3,174.8 C1626.70004,177.866682 1634.0333,182.466636 1640.3,188.6 C1646.5667,194.733364 1651.49998,202.299955 1655.1,211.3 C1658.70002,220.300045 1660.5,230.733274 1660.5,242.6 Z M1762.5,312 C1759.69999,307.466644 1756.40002,302.566693 1752.6,297.3 C1748.79998,292.033307 1744.66669,286.766693 1740.2,281.5 C1735.73331,276.233307 1731.10002,271.166691 1726.3,266.3 C1721.49998,261.433309 1716.70002,257.133352 1711.9,253.4 L1711.9,312 L1680.7,312 L1680.7,173.4 L1711.9,173.4 L1711.9,225.8 C1720.03337,217.266624 1728.19996,208.366713 1736.4,199.1 L1742.16078,192.599986 C1748.20281,185.793638 1753.91585,179.393681 1759.3,173.4 L1796.3,173.4 C1786.83329,184.600056 1777.33338,195.399948 1767.8,205.8 C1758.26662,216.200052 1748.23339,226.666614 1737.7,237.2 C1748.76672,246.400046 1759.46661,257.33327 1769.8,270 C1780.13338,282.66673 1790.03329,296.66659 1799.5,312 L1762.5,312 Z M1811.7,312 L1811.7,173.4 L1905.3,173.4 L1905.3,199.6 L1842.9,199.6 L1842.9,226.8 L1898.3,226.8 L1898.3,252.4 L1842.9,252.4 L1842.9,285.8 L1909.9,285.8 L1909.9,312 L1811.7,312 Z M2020.1,312 C2011.16662,296.133254 2001.50005,280.466744 1991.1,265 C1980.69995,249.533256 1969.63339,234.933402 1957.9,221.2 L1957.9,312 L1927.1,312 L1927.1,173.4 L1952.5,173.4 C1956.90002,177.800022 1961.76664,183.199968 1967.1,189.6 C1972.43336,196.000032 1977.86664,202.833297 1983.4,210.1 C1988.93336,217.366703 1994.43331,224.899961 1999.9,232.7 C2005.36669,240.500039 2010.49998,247.999964 2015.3,255.2 L2015.3,173.4 L2046.3,173.4 L2046.3,312 L2020.1,312 Z M2110.3,288.2 C2114.70002,288.2 2118.33332,287.833337 2121.2,287.1 C2124.06668,286.366663 2126.36666,285.366673 2128.1,284.1 C2129.83334,282.833327 2131.03333,281.333342 2131.7,279.6 C2132.36667,277.866658 2132.7,275.933344 2132.7,273.8 C2132.7,269.266644 2130.56669,265.500015 2126.3,262.5 C2122.03331,259.499985 2114.70005,256.266684 2104.3,252.8 C2099.76664,251.2 2095.23336,249.366677 2090.7,247.3 C2086.16664,245.233323 2082.10002,242.633349 2078.5,239.5 C2074.89998,236.366651 2071.96668,232.566689 2069.7,228.1 C2067.43332,223.633311 2066.3,218.200032 2066.3,211.8 C2066.3,205.399968 2067.49999,199.633359 2069.9,194.5 C2072.30001,189.366641 2075.69998,185.000018 2080.1,181.4 C2084.50002,177.799982 2089.8333,175.033343 2096.1,173.1 C2102.3667,171.166657 2109.43329,170.2 2117.3,170.2 C2126.63338,170.2 2134.69997,171.19999 2141.5,173.2 C2148.30003,175.20001 2153.89998,177.399988 2158.3,179.8 L2149.3,204.4 C2145.43331,202.39999 2141.13336,200.633341 2136.4,199.1 C2131.66664,197.566659 2125.9667,196.8 2119.3,196.8 C2111.8333,196.8 2106.46668,197.833323 2103.2,199.9 C2099.93332,201.966677 2098.3,205.133312 2098.3,209.4 C2098.3,211.933346 2098.9,214.066658 2100.1,215.8 C2101.30001,217.533342 2102.99999,219.099993 2105.2,220.5 C2107.40001,221.900007 2109.93332,223.166661 2112.8,224.3 L2114.39339,224.921489 C2116.8281,225.85868 2119.46362,226.818177 2122.3,227.8 C2129.50004,230.46668 2135.76664,233.099987 2141.1,235.7 C2146.43336,238.300013 2150.86665,241.333316 2154.4,244.8 C2157.93335,248.266684 2160.56666,252.33331 2162.3,257 C2164.03334,261.66669 2164.9,267.3333 2164.9,274 C2164.9,286.933398 2160.36671,296.966631 2151.3,304.1 C2142.23329,311.233369 2128.56676,314.8 2110.3,314.8 C2104.16664,314.8 2098.63336,314.433337 2093.7,313.7 C2088.76664,312.966663 2084.40002,312.066672 2080.6,311 C2076.79998,309.933328 2073.53335,308.800006 2070.8,307.6 C2068.06665,306.399994 2065.76668,305.266672 2063.9,304.2 L2072.7,279.4 C2076.83335,281.666678 2081.9333,283.7 2088,285.5 C2094.0667,287.300009 2101.49996,288.2 2110.3,288.2 Z" id="path-15"></path>
        <filter x="-2.1%" y="-20.1%" width="104.1%" height="142.9%" filterUnits="objectBoundingBox" id="filter-16">
            <feMorphology radius="5" operator="dilate" in="SourceAlpha" result="shadowSpreadOuter1"></feMorphology>
            <feOffset dx="0" dy="2" in="shadowSpreadOuter1" result="shadowOffsetOuter1"></feOffset>
            <feGaussianBlur stdDeviation="5" in="shadowOffsetOuter1" result="shadowBlurOuter1"></feGaussianBlur>
            <feColorMatrix values="0 0 0 0 0   0 0 0 0 0   0 0 0 0 0  0 0 0 0.05 0" type="matrix" in="shadowBlurOuter1"></feColorMatrix>
        </filter>
    </defs>
    <g id="Page-1" stroke="none" stroke-width="1" fill="none" fill-rule="evenodd">
        <g id="Group-6" transform="translate(-32.000000, -17.000000)">
            <g id="Group-5">
                <g id="Group-4" filter="url(#filter-1)">
                    <g id="Group-2" transform="translate(269.148169, 269.270785) rotate(-9.000000) translate(-269.148169, -269.270785) translate(34.148169, 34.270785)">
                        <mask id="mask-4" fill="white">
                            <use xlink:href="#path-3"></use>
                        </mask>
                        <use id="Rectangle" fill="url(#linearGradient-2)" transform="translate(234.927946, 235.196746) rotate(-8.000000) translate(-234.927946, -235.196746) " xlink:href="#path-3"></use>
                        <path d="M231.34066,5.6803191 L327.161953,5.6803191 C382.764155,5.6803191 402.926856,11.4696627 423.25419,22.3408398 C443.581524,33.2120169 459.534534,49.1650274 470.405712,69.4923612 C481.276889,89.819695 487.066232,109.982397 487.066232,165.584598 L487.066232,261.250809 C487.066232,316.85301 481.276889,337.015712 470.405712,357.343046 C459.534534,377.67038 443.581524,393.62339 423.25419,404.494567 C402.926856,415.365744 382.764155,421.155088 327.161953,421.155088 L231.34066,421.155088 C175.738458,421.155088 155.575757,415.365744 135.248423,404.494567 C114.921089,393.62339 98.9680785,377.67038 88.0969014,357.343046 C77.2257244,337.015712 71.4363807,316.85301 71.4363807,261.250809 L71.4363807,165.584598 C71.4363807,109.982397 77.2257244,89.819695 88.0969014,69.4923612 C98.9680785,49.1650274 114.921089,33.2120169 135.248423,22.3408398 C155.575757,11.4696627 175.738458,5.6803191 231.34066,5.6803191 Z" id="Rectangle" fill="url(#linearGradient-2)" mask="url(#mask-4)"></path>
                    </g>
                    <g id="Group-3" transform="translate(307.327392, 236.717445) rotate(-7.000000) translate(-307.327392, -236.717445) translate(99.327392, 28.717445)">
                        <g id="Rectangle">
                            <use fill="#F4F8FB" fill-rule="evenodd" xlink:href="#path-6"></use>
                            <use fill="url(#linearGradient-5)" fill-rule="evenodd" style="mix-blend-mode: overlay;" xlink:href="#path-6"></use>
                            <use fill="black" fill-opacity="1" filter="url(#filter-7)" xlink:href="#path-6"></use>
                            <path stroke-opacity="0.573397871" stroke="#FFFFFF" stroke-width="2" d="M160.242825,1 C109.592751,1 87.4043263,5.2847824 64.4187424,17.5776072 C44.2226405,28.3786007 28.3786007,44.2226405 17.5776072,64.4187424 C5.2847824,87.4043263 1,109.592751 1,160.242825 L1,255.231944 C1,305.882018 5.2847824,328.070442 17.5776072,351.056026 C28.3786007,371.252128 44.2226405,387.096168 64.4187424,397.897162 C87.4043263,410.189986 109.592751,414.474769 160.242825,414.474769 L255.387027,414.474769 C306.037101,414.474769 328.225525,410.189986 351.211109,397.897162 C371.407211,387.096168 387.251251,371.252128 398.052244,351.056026 C410.345069,328.070442 414.629852,305.882018 414.629852,255.231944 L414.629852,160.242825 C414.629852,109.592751 410.345069,87.4043263 398.052244,64.4187424 C387.251251,44.2226405 371.407211,28.3786007 351.211109,17.5776072 C328.225525,5.2847824 306.037101,1 255.387027,1 L160.242825,1 Z" stroke-linejoin="square"></path>
                        </g>
                    </g>
                </g>
                <g id="Group" transform="translate(163.000000, 89.000000)">
                    <g id="Oval">
                        <use fill="url(#linearGradient-8)" xlink:href="#path-10"></use>
                        <use fill-opacity="0.5" fill="url(#linearGradient-9)" style="mix-blend-mode: soft-light;" xlink:href="#path-10"></use>
                    </g>
                    <g id="Oval">
                        <circle stroke="#F4F8FB" stroke-width="45" cx="149.5" cy="146.5" r="107"></circle>
                        <use xlink:href="#path-12"></use>
                    </g>
                    <circle id="Oval" fill="url(#linearGradient-8)" cx="149.5" cy="146.5" r="84.5"></circle>
                    <g id="Oval" stroke-width="10">
                        <use stroke="url(#linearGradient-13)" fill="url(#linearGradient-8)" fill-rule="evenodd" xlink:href="#path-14"></use>
                        <use stroke="#F4F8FB" xlink:href="#path-14"></use>
                    </g>
                </g>
            </g>
            <g id="DESIGNTOKENS" fill-rule="nonzero">
                <use fill="black" fill-opacity="1" filter="url(#filter-16)" xlink:href="#path-15"></use>
                <use fill="#FFFFFF" xlink:href="#path-15"></use>
            </g>
        </g>
    </g>
</svg>