<?xml version="1.0" encoding="UTF-8"?>
<svg width="58px" height="28px" viewBox="0 0 58 28" version="1.1" xmlns="http://www.w3.org/2000/svg" xmlns:xlink="http://www.w3.org/1999/xlink">
    <!-- Generator: Sketch 55.1 (78136) - https://sketchapp.com -->
    <title>Group 24</title>
    <desc>Created with Sketch.</desc>
    <g id="Page-1" stroke="none" stroke-width="1" fill="none" fill-rule="evenodd">
        <g id="Notebook-Copy" transform="translate(-1242.000000, -1653.000000)" fill="#393B36">
            <g id="Group-25" transform="translate(101.000000, 1553.000000)">
                <g id="Group-21" transform="translate(0.000000, 98.000000)">
                    <g id="Group-24" transform="translate(1141.000000, 2.000000)">
                        <polyline id="Fill-2" points="39.9153832 -9.9475983e-14 25.7265234 22.2815385 10.1760187 22.2815385 13.7590093 16.8 23.4330841 16.8 26.9445234 11.2479231 5.37448598 11.2479231 1.86304673 16.8 7.0228785 16.8 2.55795385e-13 27.8341538 28.951215 27.8341538 39.9153832 10.4644615 43.9282243 16.8 40.4883364 16.8 36.9774393 22.2815385 47.4396636 22.2815385 50.9511028 27.8341538 57.6156822 27.8341538 39.9153832 -9.9475983e-14"></polyline>
                        <polyline id="Fill-3" points="35.2574953 0.213769231 12.3973645 0.213769231 8.88592523 5.76638462 31.7460561 5.69530769 35.2574953 0.213769231"></polyline>
                    </g>
                </g>
            </g>
        </g>
    </g>
</svg>