<?xml version="1.0" encoding="UTF-8"?>
<svg width="30px" height="30px" viewBox="0 0 30 30" version="1.1" xmlns="http://www.w3.org/2000/svg" xmlns:xlink="http://www.w3.org/1999/xlink">
    <!-- Generator: Sketch 55.1 (78136) - https://sketchapp.com -->
    <title>Fill 1</title>
    <desc>Created with Sketch.</desc>
    <g id="Page-1" stroke="none" stroke-width="1" fill="none" fill-rule="evenodd">
        <g id="Notebook-Copy" transform="translate(-459.000000, -1652.000000)" fill="#393B36">
            <g id="Group-25" transform="translate(101.000000, 1553.000000)">
                <g id="Group-21" transform="translate(0.000000, 98.000000)">
                    <path d="M388,16.0916701 C388,7.75676472 381.284277,1 373,1 C364.715723,1 358,7.75676472 358,16.0916701 C358,23.6243589 363.485283,29.86783 370.65625,31 L370.65625,20.454106 L366.847656,20.454106 L366.847656,16.0916701 L370.65625,16.0916701 L370.65625,12.7667865 C370.65625,8.98443672 372.895645,6.89518363 376.321973,6.89518363 C377.963096,6.89518363 379.679688,7.18994282 379.679688,7.18994282 L379.679688,10.9039085 L377.788223,10.9039085 C375.924854,10.9039085 375.34375,12.0672346 375.34375,13.2607145 L375.34375,16.0916701 L379.503906,16.0916701 L378.838867,20.454106 L375.34375,20.454106 L375.34375,31 C382.514717,29.86783 388,23.6243589 388,16.0916701" id="Fill-1"></path>
                </g>
            </g>
        </g>
    </g>
</svg>