<?xml version="1.0" encoding="UTF-8"?>
<svg width="116px" height="21px" viewBox="0 0 116 21" version="1.1" xmlns="http://www.w3.org/2000/svg" xmlns:xlink="http://www.w3.org/1999/xlink">
    <!-- Generator: Sketch 55.1 (78136) - https://sketchapp.com -->
    <title>Sony</title>
    <desc>Created with Sketch.</desc>
    <g id="Page-1" stroke="none" stroke-width="1" fill="none" fill-rule="evenodd">
        <g id="Notebook-Copy" transform="translate(-1007.000000, -1657.000000)" fill="#393B36">
            <g id="Group-25" transform="translate(101.000000, 1553.000000)">
                <g id="Group-21" transform="translate(0.000000, 98.000000)">
                    <g id="Sony" transform="translate(906.000000, 6.000000)">
                        <path d="M113.739851,16.7314412 C112.763723,16.7314412 111.975787,17.5201765 111.975787,18.4880294 C111.975787,19.4657647 112.763723,20.2538824 113.739851,20.2538824 C114.71166,20.2538824 115.49466,19.4657647 115.49466,18.4880294 C115.49466,17.5201765 114.71166,16.7314412 113.739851,16.7314412 Z M113.739851,20.0420294 C112.883426,20.0420294 112.192362,19.3502647 112.192362,18.4880294 C112.192362,17.6350588 112.883426,16.9439118 113.739851,16.9439118 C114.591957,16.9439118 115.283021,17.6350588 115.283021,18.4880294 C115.283021,19.3502647 114.591957,20.0420294 113.739851,20.0420294 L113.739851,20.0420294 Z" id="Fill-2"></path>
                        <path d="M114.642553,18.0272647 C114.642553,17.8611176 114.569128,17.6863235 114.42166,17.6029412 C114.274191,17.5158529 114.108213,17.5065882 113.942851,17.5065882 L113.085809,17.5065882 L113.085809,19.4750294 L113.32583,19.4750294 L113.32583,18.5664706 L113.767617,18.5664706 L114.329723,19.4750294 L114.615404,19.4750294 L114.021213,18.5664706 C114.371064,18.5572059 114.642553,18.4145294 114.642553,18.0272647 Z M113.694191,18.3774706 L113.32583,18.3774706 L113.32583,17.6813824 L113.887319,17.6813824 C114.13166,17.6813824 114.39883,17.7184412 114.39883,18.0223235 C114.39883,18.4237941 113.97,18.3774706 113.694191,18.3774706 L113.694191,18.3774706 Z" id="Fill-3"></path>
                        <path d="M103.42634,8.51055882 L107.024191,4.66570588 C107.232745,4.38344118 107.336404,4.18579412 107.336404,4.01655882 C107.336404,3.73429412 107.093298,3.62126471 106.331277,3.62126471 L105.423638,3.62126471 L105.423638,1.19391176 L115.247851,1.19391176 L115.247851,3.62126471 L113.956426,3.62126471 C112.465702,3.62126471 112.188043,3.84670588 110.109298,6.47170588 L104.417894,12.6234706 L104.417894,16.3775294 C104.417894,17.3379706 104.902872,17.6752059 106.289936,17.6752059 L108.438404,17.6752059 L108.438404,20.0179412 L94.6782128,20.0179412 L94.6782128,17.6752059 L96.8272979,17.6752059 C98.2137447,17.6752059 98.6993404,17.3379706 98.6993404,16.3775294 L98.6993404,12.6234706 L91.9966383,5.20120588 C90.8878511,3.90352941 91.0414894,3.62126471 87.957617,3.62126471 L87.957617,1.19391176 L100.401702,1.19391176 L100.401702,3.62126471 L99.5156596,3.62126471 C98.6141915,3.62126471 98.2328723,3.7905 98.2328723,4.12897059 C98.2328723,4.41185294 98.5099149,4.63791176 98.6832979,4.86273529 L102.074447,8.56182353 C102.476128,8.98120588 102.967277,9.03617647 103.42634,8.51055882" id="Fill-4"></path>
                        <path d="M19.9328723,1.19329412 L22.9346809,1.19329412 L22.9346809,7.96641176 L20.1624043,7.96641176 C19.9168298,6.61252941 19.0708936,6.08567647 18.298383,5.37538235 C16.9051489,4.09438235 13.889766,3.02770588 11.3531915,3.02770588 C8.0792766,3.02770588 5.31625532,4.04435294 5.31625532,5.53905882 C5.31625532,9.68841176 24.039766,6.38647059 24.039766,14.2318235 C24.039766,18.3243529 20.0291277,20.6102647 12.8266383,20.6102647 C10.3332553,20.6102647 6.56017021,19.8351176 4.33395745,18.6523235 C3.63548936,18.2483824 3.33993617,19.0334118 3.20912766,20.0173235 L0.131425532,20.0173235 L0.131425532,13.0181471 L2.91480851,13.0181471 C3.52874468,14.7969706 4.37468085,15.1632353 5.15274468,15.8692059 C6.50278723,17.1106765 9.71623404,18.0142941 12.6631277,17.9852647 C17.1056809,17.9414118 18.6340426,16.9692353 18.6340426,15.5579118 C18.6340426,14.1472059 17.1229574,13.8087353 12.2540426,13.0465588 L8.12,12.3696176 C3.45470213,11.6636471 0.058,10.6192059 0.058,6.89417647 C0.058,3.02770588 4.35555319,0.600352941 11.1489574,0.600352941 C14.0113191,0.600352941 16.4078298,0.983294118 18.706234,2.28467647 C19.343617,2.69788235 19.9408936,2.74791176 19.9328723,1.19329412" id="Fill-5"></path>
                        <path d="M78.5147234,12.5326765 L78.5745745,5.00541176 C78.5745745,4.01779412 78.0618298,3.67870588 76.5945532,3.67870588 L74.8712128,3.67870588 L74.8712128,1.33658824 L85.8356809,1.33658824 L85.8356809,3.67870588 L84.4060426,3.67870588 C82.938766,3.67870588 82.4254043,4.01779412 82.4254043,5.00541176 L82.4254043,20.1606176 L78.1327872,20.1272647 L64.236234,6.95285294 L64.236234,16.5195882 C64.236234,17.4794118 64.7495957,17.8456765 66.2162553,17.8456765 L68.1228511,17.8456765 L68.1228511,20.1606176 L56.7369574,20.1606176 L56.7369574,17.8456765 L58.6231915,17.8456765 C60.0898511,17.8456765 60.6038298,17.4794118 60.6038298,16.5195882 L60.6038298,5.00541176 C60.6038298,4.01779412 60.0898511,3.67870588 58.6231915,3.67870588 L56.7369574,3.67870588 L56.7369574,1.33658824 L66.582766,1.33658824 L78.5147234,12.5326765" id="Fill-6"></path>
                        <path d="M41.788383,0.458294118 C33.0501277,0.458294118 27.580234,4.32476471 27.580234,10.5333529 C27.580234,16.6301471 32.974234,20.4675882 41.5218298,20.4675882 C50.6012979,20.4675882 55.882383,16.6863529 55.882383,10.2232941 C55.882383,4.41 50.1829574,0.458294118 41.788383,0.458294118 Z M41.5897021,18.0124412 C36.7528723,18.0124412 33.9725745,15.2182059 33.9725745,10.3925294 C33.9725745,5.67926471 36.8738085,2.88502941 41.8309574,2.88502941 C46.5869574,2.88502941 49.3678723,5.73608824 49.3678723,10.5901765 C49.3678723,15.3312353 46.5468511,18.0124412 41.5897021,18.0124412 L41.5897021,18.0124412 Z" id="Fill-7"></path>
                    </g>
                </g>
            </g>
        </g>
    </g>
</svg>