<?xml version="1.0" encoding="UTF-8"?>
<svg width="28px" height="32px" viewBox="0 0 28 32" version="1.1" xmlns="http://www.w3.org/2000/svg" xmlns:xlink="http://www.w3.org/1999/xlink">
    <!-- Generator: Sketch 55.1 (78136) - https://sketchapp.com -->
    <title>Group 20</title>
    <desc>Created with Sketch.</desc>
    <g id="Page-1" stroke="none" stroke-width="1" fill="none" fill-rule="evenodd">
        <g id="Notebook-Copy" transform="translate(-101.000000, -1651.000000)" fill="#393B36">
            <g id="Group-25" transform="translate(101.000000, 1553.000000)">
                <g id="Group-21" transform="translate(0.000000, 98.000000)">
                    <g id="Group-20">
                        <path d="M27.7395277,23.3960678 C26.9813317,25.0562712 26.6184297,25.7971525 25.6425474,27.2642712 C24.2801552,29.3130847 22.3607826,31.8638644 19.9824297,31.8852881 C17.8684297,31.9045424 17.3257238,30.5261017 14.4573709,30.5418305 C11.5890179,30.5572881 10.9900375,31.9094237 8.87576304,31.8906387 C6.4974101,31.8687458 4.67823363,29.5650169 3.31611598,27.5170169 C-0.492707549,21.7892881 -0.890746764,15.0673898 1.45823363,11.4939661 C3.12780226,8.95430508 5.76035127,7.46766102 8.23697873,7.46766102 C10.7580768,7.46766102 12.3428219,8.83362712 14.4274493,8.83362712 C16.449214,8.83362712 17.681763,7.46549153 20.5962336,7.46549153 C22.7994493,7.46549153 25.1338807,8.65030508 26.7974101,10.7002034 C21.347567,13.6504407 22.2325866,21.3404746 27.7395277,23.3960678" id="Fill-136"></path>
                        <path d="M18.3853317,5.17749153 C19.443567,3.83484746 20.2484297,1.93789831 19.9566258,-1.687539e-13 C18.227214,0.117694915 16.2029787,1.20488136 15.0214885,2.62237288 C13.9489787,3.90942373 13.0639591,5.8180339 13.4087434,7.67267797 C15.2970964,7.73044068 17.2507826,6.61613559 18.3853317,5.17749153" id="Fill-137"></path>
                    </g>
                </g>
            </g>
        </g>
    </g>
</svg>