<?xml version="1.0" encoding="UTF-8"?>
<svg width="91px" height="30px" viewBox="0 0 91 30" version="1.1" xmlns="http://www.w3.org/2000/svg" xmlns:xlink="http://www.w3.org/1999/xlink">
    <!-- Generator: Sketch 55.1 (78136) - https://sketchapp.com -->
    <title>google-new2015-seeklogo.com</title>
    <desc>Created with Sketch.</desc>
    <defs>
        <polygon id="path-1" points="0.152964981 0.0434117647 30.6825798 0.0434117647 30.6825798 21.5082353 0.152964981 21.5082353"></polygon>
    </defs>
    <g id="Page-1" stroke="none" stroke-width="1" fill="none" fill-rule="evenodd">
        <g id="Notebook-Copy" transform="translate(-248.000000, -1652.000000)">
            <g id="Group-25" transform="translate(101.000000, 1553.000000)">
                <g id="Group-21" transform="translate(0.000000, 98.000000)">
                    <g id="google-new2015-seeklogo.com" transform="translate(147.000000, 1.000000)">
                        <path d="M22.3459883,10.7855294 L11.7404163,10.7855294 L11.7404163,13.9224706 L19.2619027,13.9224706 C18.8904669,18.3215294 15.2189533,20.1974118 11.7531634,20.1974118 C7.31894942,20.1974118 3.44985603,16.7198824 3.44985603,11.8457647 C3.44985603,7.09764706 7.13801167,3.44117647 11.7627237,3.44117647 C15.3308444,3.44117647 17.4334047,5.70811765 17.4334047,5.70811765 L19.6368794,3.43376471 C19.6368794,3.43376471 16.8084436,0.295058824 11.6501245,0.295058824 C5.08148249,0.295058824 0,5.82105882 0,11.79 C0,17.6385882 4.78015564,23.3414118 11.817607,23.3414118 C18.0070233,23.3414118 22.5379027,19.1152941 22.5379027,12.8654118 C22.5379027,11.5468235 22.3459883,10.7848235 22.3459883,10.7848235 L22.3459883,10.7855294" id="Fill-1" fill="#393B36"></path>
                        <path d="M31.0770311,11.4232941 C33.2171245,11.4232941 35.2449728,13.1481176 35.2449728,15.9268235 C35.2449728,18.6469412 33.2256226,20.4204706 31.0671167,20.4204706 C28.6954514,20.4204706 26.824463,18.5272941 26.824463,15.9052941 C26.824463,13.3394118 28.6724358,11.4232941 31.0770311,11.4232941 Z M31.0338327,8.514 C26.6821206,8.514 23.5633346,11.9050588 23.5633346,15.8601176 C23.5633346,19.8737647 26.5882879,23.328 31.084821,23.328 C35.1557432,23.328 38.4905214,20.2270588 38.4905214,15.9465882 C38.4905214,11.0403529 34.6111595,8.514 31.0338327,8.514 L31.0338327,8.514 Z" id="Fill-3" fill="#393B36"></path>
                        <g id="Group-7" transform="translate(39.657588, 8.470588)">
                            <mask id="mask-2" fill="white">
                                <use xlink:href="#path-1"></use>
                            </mask>
                            <g id="Clip-5"></g>
                            <path d="M7.66701556,2.95270588 C9.80710895,2.95270588 11.8349572,4.67752941 11.8349572,7.45623529 C11.8349572,10.1763529 9.815607,11.9498824 7.65710117,11.9498824 C5.2854358,11.9498824 3.41444747,10.0567059 3.41444747,7.43470588 C3.41444747,4.86882353 5.26206615,2.95270588 7.66701556,2.95270588 Z M7.62381712,0.0434117647 C3.27175097,0.0434117647 0.152964981,3.43447059 0.152964981,7.38952941 C0.152964981,11.4031765 3.17827237,14.8574118 7.67480545,14.8574118 C11.7453735,14.8574118 15.0805058,11.7564706 15.0805058,7.476 C15.0805058,2.56976471 11.201144,0.0434117647 7.62381712,0.0434117647 L7.62381712,0.0434117647 Z" id="Fill-4" fill="#393B36" mask="url(#mask-2)"></path>
                            <path d="M23.8490817,2.95482353 C25.8075292,2.95482353 27.8183813,4.62141176 27.8183813,7.46788235 C27.8183813,10.3612941 25.8117782,11.9558824 23.8058833,11.9558824 C21.6764125,11.9558824 19.6949494,10.2324706 19.6949494,7.49541176 C19.6949494,4.65176471 21.7525409,2.95482353 23.8490817,2.95482353 Z M23.5597938,0.0511764706 C19.5653541,0.0511764706 16.425677,3.53823529 16.425677,7.45235294 C16.425677,11.9107059 20.065677,14.8672941 23.4911012,14.8672941 C25.6088872,14.8672941 26.7352335,14.0294118 27.5666265,13.0676471 L27.5666265,14.5281176 C27.5666265,17.0837647 26.0100661,18.6141176 23.6603541,18.6141176 C21.3903113,18.6141176 20.2519261,16.9316471 19.8560584,15.9769412 L17.000358,17.1670588 C18.0133969,19.3023529 20.05293,21.5294118 23.6840778,21.5294118 C27.6555019,21.5294118 30.6825798,19.0358824 30.6825798,13.8067059 L30.6825798,0.496588235 L27.5666265,0.496588235 L27.5666265,1.75129412 C26.6088249,0.722117647 25.2987082,0.0511764706 23.5597938,0.0511764706 L23.5597938,0.0511764706 Z" id="Fill-6" fill="#393B36" mask="url(#mask-2)"></path>
                        </g>
                        <path d="M84.3230078,11.3527059 C85.6809261,11.3527059 86.6578482,12.0723529 87.0728366,12.9349412 L80.4185058,15.7072941 C80.1316965,13.5610588 82.1715837,11.3527059 84.3230078,11.3527059 Z M84.1934125,8.50411765 C80.4252335,8.50411765 77.2618327,11.4921176 77.2618327,15.9014118 C77.2618327,20.5669412 80.7881712,23.334 84.5552879,23.334 C87.699214,23.334 89.6289805,21.6194118 90.780821,20.0834118 L88.21193,18.3794118 C87.5451868,19.4107059 86.4308794,20.4187059 84.5708677,20.4187059 C82.4817626,20.4187059 81.5211284,19.2783529 80.9262646,18.1736471 L90.8905875,14.0523529 L90.3732685,12.8445882 C89.4105097,10.4795294 87.1652529,8.50447059 84.1937665,8.50447059 L84.1934125,8.50411765 L84.1934125,8.50411765 Z" id="Fill-8" fill="#393B36"></path>
                        <polygon id="Fill-9" fill="#393B36" points="72.5114202 22.8942353 75.7842335 22.8942353 75.7842335 1.06129412 72.5114202 1.06129412"></polygon>
                    </g>
                </g>
            </g>
        </g>
    </g>
</svg>