<?xml version="1.0" encoding="UTF-8"?>
<svg width="125px" height="32px" viewBox="0 0 125 32" version="1.1" xmlns="http://www.w3.org/2000/svg" xmlns:xlink="http://www.w3.org/1999/xlink">
    <!-- Generator: Sketch 55.1 (78136) - https://sketchapp.com -->
    <title>Group 22</title>
    <desc>Created with Sketch.</desc>
    <g id="Page-1" stroke="none" stroke-width="1" fill="none" fill-rule="evenodd">
        <g id="Notebook-Copy" transform="translate(-608.000000, -1651.000000)" fill="#2E2F31">
            <g id="Group-25" transform="translate(101.000000, 1553.000000)">
                <g id="Group-21" transform="translate(0.000000, 98.000000)">
                    <g id="Group-22" transform="translate(507.000000, 0.000000)">
                        <path d="M16.2699468,31.3791166 C6.51662234,31.3763932 1.49213975e-13,24.2989464 1.49213975e-13,15.7181804 C1.49213975e-13,7.13605275 6.53257979,-0.0224153386 16.255984,7.63833441e-14 L108.136968,7.63833441e-14 C117.859707,-0.0224153386 124.392287,7.13605275 124.392287,15.7181804 C124.392287,24.2989464 117.875,31.3763932 108.121011,31.3791166 L16.2699468,31.3791166 Z M16.3005319,3.86047828 C8.57912234,3.87477615 3.83843085,9.16022296 3.83843085,15.697074 C3.83843085,22.2312017 8.54920213,27.5595421 16.3005319,27.5303856 L108.090426,27.5303856 C115.841755,27.5595421 120.554521,22.2312017 120.554521,15.697074 C120.554521,9.16022296 115.81383,3.87477615 108.090426,3.86047828 L16.3005319,3.86047828 Z" id="Combined-Shape"></path>
                        <polyline id="Fill-78" points="12.3410904 8.27715913 16.8337766 8.27715913 23.0531915 18.577074 23.049867 8.27715913 27.5079787 8.27715913 27.5079787 23.0502655 23.056516 23.0502655 16.8051862 12.7489889 16.8051862 23.0502655 12.3390957 23.0502655 12.3410904 8.27715913"></polyline>
                        <polyline id="Fill-79" points="51.7546543 9.79818041 56.0964096 9.79818041 56.0964096 11.7855847 58.4461436 11.7855847 58.4461436 13.2446485 56.0964096 13.2446485 56.099734 23.0502655 51.7546543 23.0502655 51.7566489 13.2446485 49.3996011 13.2446485 49.3996011 11.7869464 51.7579787 11.7869464 51.7546543 9.79818041"></polyline>
                        <polygon id="Fill-80" points="29.9926862 23.0509464 34.3304521 23.0509464 34.3304521 13.2269464 29.9926862 13.2269464"></polygon>
                        <polygon id="Fill-81" points="29.9827128 11.294691 34.3304521 11.294691 34.3304521 8.27375487 29.9827128 8.27375487"></polygon>
                        <path d="M106.013298,12.5556272 C102.511968,12.5556272 99.674867,15.0257549 99.674867,18.0732442 C99.674867,21.1173293 102.511968,23.587457 106.013298,23.587457 C109.516622,23.587457 112.353059,21.1173293 112.353059,18.0732442 C112.353059,15.0257549 109.516622,12.5556272 106.013298,12.5556272 Z M107.755319,18.0596272 C107.755319,18.0596272 107.751995,19.5425208 107.751995,20.1396272 C107.751995,21.7049038 106.849734,22.3523932 105.978723,22.3523932 C105.110372,22.3523932 104.202128,21.7049038 104.202128,20.1396272 C104.202128,19.5425208 104.205452,18.0214996 104.205452,18.0214996 C104.205452,18.0214996 104.208112,16.5706059 104.208112,15.9734996 C104.208112,14.4143506 105.113697,13.7729889 105.978723,13.7729889 C106.84375,13.7729889 107.751995,14.4143506 107.751995,15.9734996 C107.751995,16.5706059 107.751995,17.6701804 107.755319,18.0664357 L107.755319,18.0596272 L107.755319,18.0596272 Z" id="Fill-82"></path>
                        <path d="M94.0106383,18.0889038 C94.0106383,18.0889038 94.0106383,16.8565634 94.0106383,16.3323081 C94.0106383,14.8140102 92.987367,14.4272868 92.3111702,14.4272868 C91.6203457,14.4272868 90.6097074,14.8140102 90.6097074,16.3323081 C90.6097074,16.835457 90.6117021,18.0848187 90.6117021,18.0848187 C90.6117021,18.0848187 90.6097074,19.3069464 90.6097074,19.8312017 C90.6097074,21.3494996 91.6203457,21.7457549 92.3111702,21.7457549 C92.987367,21.7457549 94.0106383,21.3494996 94.0106383,19.8312017 C94.0106383,19.1993719 94.0106383,18.0889038 94.0106383,18.0889038 Z M93.9793883,8.27715913 L98.2613032,8.27715913 L98.2613032,23.048223 L93.9734043,23.048223 C93.9734043,23.048223 93.9700798,22.5716272 93.9700798,22.4824357 C92.3111702,23.5493293 90.4355053,23.5466059 88.9753989,22.8507762 C88.5851064,22.6635421 86.0086436,21.3964783 86.0086436,17.9799676 C86.0086436,15.3859251 88.3982713,12.5556272 91.5239362,12.8361379 C92.5531915,12.9300953 93.2852394,13.3140953 93.9793883,13.7123932 C93.9793883,11.441074 93.9793883,8.27715913 93.9793883,8.27715913 L93.9793883,8.27715913 Z" id="Fill-83"></path>
                        <path d="M44.4853723,12.7728187 C46.106383,12.7265208 49.3996011,13.8145208 49.375,17.7049038 C49.3703457,18.3939251 49.3736702,23.048223 49.3736702,23.048223 L45.0638298,23.048223 C45.0638298,23.048223 45.0638298,17.2112868 45.0638298,16.5957974 C45.0638298,15.7392868 44.2639628,14.787457 43.0831117,14.787457 C41.8996011,14.787457 41.0219415,15.7392868 41.0219415,16.5957974 C41.0219415,17.0158825 41.0265957,23.048223 41.0265957,23.048223 L36.7194149,23.048223 L36.7167553,13.2255847 L41.0265957,13.2221804 C41.0265957,13.2221804 41.0219415,14.0126485 41.0265957,14.2536698 C41.8570479,13.4441379 43.0525266,12.8157123 44.4853723,12.7728187" id="Fill-84"></path>
                        <path d="M79.7420213,12.7728187 C81.3603723,12.7265208 84.6535904,13.8145208 84.6310998,17.7049038 C84.6256649,18.3939251 84.6276596,23.048223 84.6276596,23.048223 L80.318484,23.048223 C80.318484,23.048223 80.318484,17.2112868 80.318484,16.5957974 C80.318484,15.7392868 79.518617,14.787457 78.337766,14.787457 C77.15625,14.787457 76.275266,15.7392868 76.275266,16.5957974 C76.275266,17.0158825 76.2819149,23.048223 76.2819149,23.048223 L71.974734,23.048223 L71.9780585,13.2255847 L76.2819149,13.2221804 C76.2819149,13.2221804 76.275266,14.0126485 76.2819149,14.2536698 C77.1130319,13.4441379 78.306516,12.8157123 79.7420213,12.7728187" id="Fill-85"></path>
                        <path d="M66.0904255,19.6133293 C66.0904255,19.6133293 66.0930851,19.6569038 66.0930851,20.209074 C66.0930851,22.0065208 64.9401596,22.4068613 64.3011968,22.4068613 C63.6589096,22.4068613 62.4847074,22.0065208 62.4847074,20.209074 C62.4847074,19.6705208 62.4906915,18.1808187 62.4906915,18.1808187 C62.4906915,18.1808187 70.6609043,18.1835421 70.6609043,18.1808187 C70.6609043,15.1333293 67.7892287,12.6094144 64.2613032,12.6094144 C60.7340426,12.6094144 57.8730053,15.0795421 57.8730053,18.1236272 C57.8730053,21.1717974 60.7340426,23.6412442 64.2613032,23.6412442 C67.1881649,23.6412442 69.6589096,21.9295847 70.4148936,19.6092442 L66.0904255,19.6133293 Z M62.487367,16.6502655 C62.4793883,15.7896698 62.4966755,15.2163932 62.7726064,14.7220953 C63.1136968,14.1174996 63.737367,13.8301804 64.3011968,13.827457 L64.2978723,13.827457 C64.8656915,13.8301804 65.4853723,14.1174996 65.8231383,14.7220953 C66.099734,15.2163932 66.1150266,15.7896698 66.1090426,16.6502655 L62.487367,16.6502655 L62.487367,16.6502655 Z" id="Fill-86"></path>
                        <path d="M113.249335,9.90098892 C113.670878,9.90098892 114.046543,9.87103147 114.046543,9.35358466 C114.046543,8.93758466 113.677527,8.85996764 113.333112,8.85996764 L112.654255,8.85996764 L112.654255,9.90098892 L113.249335,9.90098892 Z M112.654255,11.7917123 L112.15492,11.7917123 L112.15492,8.42762721 L113.40758,8.42762721 C114.182846,8.42762721 114.567154,8.72175487 114.567154,9.38354211 C114.567154,9.98541445 114.198138,10.2468613 113.714761,10.3108613 L114.647606,11.7917123 L114.093085,11.7917123 L113.224069,10.3333293 L112.654255,10.3333293 L112.654255,11.7917123 L112.654255,11.7917123 Z" id="Fill-87"></path>
                        <path d="M113.255319,12.5392868 C114.545878,12.5392868 115.559176,11.5057549 115.559176,10.1011591 C115.559176,8.72175487 114.545878,7.67869104 113.255319,7.67869104 C111.953457,7.67869104 110.936835,8.72175487 110.936835,10.1011591 C110.936835,11.5057549 111.953457,12.5392868 113.255319,12.5392868 Z M110.363032,10.1011591 C110.363032,8.42762721 111.69016,7.19256338 113.255319,7.19256338 C114.809176,7.19256338 116.132314,8.42762721 116.132314,10.1011591 C116.132314,11.7917123 114.809176,13.0254144 113.255319,13.0254144 C111.69016,13.0254144 110.363032,11.7917123 110.363032,10.1011591 L110.363032,10.1011591 Z" id="Fill-88"></path>
                    </g>
                </g>
            </g>
        </g>
    </g>
</svg>