<?xml version="1.0" encoding="UTF-8"?>
<svg width="35px" height="32px" viewBox="0 0 35 32" version="1.1" xmlns="http://www.w3.org/2000/svg" xmlns:xlink="http://www.w3.org/1999/xlink">
    <!-- Generator: Sketch 55.1 (78136) - https://sketchapp.com -->
    <title>Group 23</title>
    <desc>Created with Sketch.</desc>
    <g id="Page-1" stroke="none" stroke-width="1" fill="none" fill-rule="evenodd">
        <g id="Notebook-Copy" transform="translate(-852.000000, -1651.000000)" fill="#393B36">
            <g id="Group-25" transform="translate(101.000000, 1553.000000)">
                <g id="Group-21" transform="translate(0.000000, 98.000000)">
                    <g id="Group-23" transform="translate(751.000000, 0.000000)">
                        <path d="M34.7541026,16.0831111 C34.7541026,18.9515556 34.2317949,23.3253333 32.76,25.8173333 C30.1484615,30.144 25.780641,31.9777778 17.3770513,31.9777778 C9.06858974,31.9777778 4.60564103,30.144 2.04166667,25.8173333 C0.569871795,23.3253333 3.55271368e-13,18.9515556 3.55271368e-13,16.0831111 C3.55271368e-13,13.2617778 0.569871795,8.65288889 2.04166667,6.16044444 C4.60564103,1.83422222 9.02102564,-6.21724894e-14 17.3770513,-6.21724894e-14 C25.780641,-6.21724894e-14 30.1484615,1.83422222 32.76,6.16044444 C34.2317949,8.65288889 34.7541026,13.2617778 34.7541026,16.0831111 Z M18.7541667,23.0897778 C19.3711538,24.5475556 20.7478205,25.0182222 21.6977564,25.0182222 C24.0714744,25.0182222 25.4485897,22.6195556 24.5937821,20.6444444 L20.4633333,10.628 C19.7983333,9.12311111 18.4216667,8.7 17.4721795,8.7 C15.4305128,8.7 13.6737821,10.816 14.5757051,13.0733333 L18.7541667,23.0897778 Z M23.7865385,15.5186667 C24.4510897,16.9764444 25.8282051,17.4466667 26.7776923,17.4466667 C29.1042949,17.4466667 30.5285256,14.8133333 29.6741667,12.8853333 L28.7242308,10.628 C28.1072436,9.12311111 26.7301282,8.7 25.7330769,8.7 C23.691859,8.7 21.9822436,10.816 22.8846154,13.0733333 L23.7865385,15.5186667 Z M10.3501282,23.0897778 C10.9675641,24.5475556 12.3442308,25.0182222 13.2941667,25.0182222 C15.6678846,25.0182222 17.0921154,22.6195556 16.2377564,20.6444444 L12.0597436,10.628 C11.3947436,9.12311111 10.0180769,8.7 9.06858974,8.7 C7.02692308,8.7 5.31775641,10.816 6.17211538,13.0733333 L10.3501282,23.0897778 Z" id="Combined-Shape"></path>
                    </g>
                </g>
            </g>
        </g>
    </g>
</svg>