<?xml version="1.0" encoding="UTF-8"?>
<svg width="251px" height="80px" viewBox="0 0 251 80" version="1.1" xmlns="http://www.w3.org/2000/svg" xmlns:xlink="http://www.w3.org/1999/xlink">
    <!-- Generator: Sketch 55.1 (78136) - https://sketchapp.com -->
    <title>Group 32</title>
    <desc>Created with Sketch.</desc>
    <g id="Page-1" stroke="none" stroke-width="1" fill="none" fill-rule="evenodd">
        <g id="Notebook-Copy" transform="translate(-205.000000, -1960.000000)" fill="#2E2F31" fill-rule="nonzero">
            <g id="Group-32" transform="translate(205.800000, 1960.160000)">
                <path d="M0,0 L13.74,0 L13.74,6 L7.44,6 L7.44,47.7 L13.74,47.7 L13.74,53.7 L0,53.7 L0,0 Z M16.86,10.56 L24.78,10.56 L24.78,14.34 L24.9,14.34 C25.7800044,12.739992 26.919993,11.5700037 28.32,10.83 C29.720007,10.0899963 31.319991,9.72 33.12,9.72 C35.7600132,9.72 37.7899929,10.4399928 39.21,11.88 C40.6300071,13.3200072 41.34,15.6599838 41.34,18.9 L41.34,42.84 L33.06,42.84 L33.06,20.58 C33.06,18.8999916 32.7800028,17.7300033 32.22,17.07 C31.6599972,16.4099967 30.7600062,16.08 29.52,16.08 C26.5999854,16.08 25.14,17.8599822 25.14,21.42 L25.14,42.84 L16.86,42.84 L16.86,10.56 Z M54.06,26.7 C54.06,28.3400082 54.0999996,29.86 54.18,31.26 C54.2600004,32.660007 54.4499985,33.86 54.75,34.86 C55.0500015,35.86 55.499997,36.6399972 56.1,37.2 C56.700003,37.7600028 57.499995,38.04 58.5,38.04 C60.1800084,38.04 61.3399968,37.1600088 61.98,35.4 C62.6200032,33.6399912 62.94,30.7400202 62.94,26.7 C62.94,22.6599798 62.6200032,19.7600088 61.98,18 C61.3399968,16.2399912 60.1800084,15.36 58.5,15.36 C57.499995,15.36 56.700003,15.6399972 56.1,16.2 C55.499997,16.7600028 55.0500015,17.539995 54.75,18.54 C54.4499985,19.540005 54.2600004,20.739993 54.18,22.14 C54.0999996,23.540007 54.06,25.0599918 54.06,26.7 Z M45.78,26.7 C45.78,23.9399862 45.9999978,21.5000106 46.44,19.38 C46.8800022,17.2599894 47.599995,15.4900071 48.6,14.07 C49.600005,12.6499929 50.9099919,11.5700037 52.53,10.83 C54.1500081,10.0899963 56.1399882,9.72 58.5,9.72 C60.9800124,9.6799998 63.0399918,10.0099965 64.68,10.71 C66.3200082,11.4100035 67.6199952,12.4799928 68.58,13.92 C69.5400048,15.3600072 70.219998,17.1399894 70.62,19.26 C71.020002,21.3800106 71.22,23.8599858 71.22,26.7 C71.22,29.4600138 71.0000022,31.8999894 70.56,34.02 C70.1199978,36.1400106 69.400005,37.9099929 68.4,39.33 C67.399995,40.7500071 66.0900081,41.7999966 64.47,42.48 C62.8499919,43.1600034 60.8600118,43.5 58.5,43.5 C56.0199876,43.5400002 53.9600082,43.2300033 52.32,42.57 C50.6799918,41.9099967 49.3800048,40.8700071 48.42,39.45 C47.4599952,38.0299929 46.78,36.2500107 46.38,34.11 C45.979998,31.9699893 45.78,29.500014 45.78,26.7 Z M77.46,1.32 L85.74,1.32 L85.74,10.56 L90.54,10.56 L90.54,16.2 L85.74,16.2 L85.74,33.66 C85.74,34.9400064 85.9299981,35.8499973 86.31,36.39 C86.6900019,36.9300027 87.479994,37.2 88.68,37.2 C89.0000016,37.2 89.3199984,37.1900001 89.64,37.17 C89.9600016,37.1499999 90.26,37.1200002 90.54,37.08 L90.54,42.84 C89.6199954,42.84 88.7300043,42.8699997 87.87,42.93 C87.0099957,42.9900003 86.1000048,43.02 85.14,43.02 C83.539992,43.02 82.2300051,42.9100011 81.21,42.69 C80.1899949,42.4699989 79.4100027,42.0300033 78.87,41.37 C78.3299973,40.7099967 77.960001,39.8400054 77.76,38.76 C77.559999,37.6799946 77.46,36.32 77.46,34.68 L77.46,16.2 L73.26,16.2 L73.26,10.56 L77.46,10.56 L77.46,1.32 Z M108.96,23.04 C108.92,21.7999938 108.840001,20.7100047 108.72,19.77 C108.599999,18.8299953 108.390001,18.0300033 108.09,17.37 C107.789998,16.7099967 107.370003,16.2100017 106.83,15.87 C106.289997,15.5299983 105.600004,15.36 104.76,15.36 C103.919996,15.36 103.230003,15.5499981 102.69,15.93 C102.149997,16.3100019 101.720002,16.8099969 101.4,17.43 C101.079998,18.0500031 100.850001,18.7399962 100.71,19.5 C100.569999,20.2600038 100.5,21.0199962 100.5,21.78 L100.5,23.04 L108.96,23.04 Z M100.5,27.96 L100.5,30.54 C100.5,31.5000048 100.569999,32.4299955 100.71,33.33 C100.850001,34.2300045 101.079998,35.0299965 101.4,35.73 C101.72,36.4300035 102.139997,36.9899979 102.66,37.41 C103.180003,37.8300021 103.819996,38.04 104.58,38.04 C105.980007,38.04 106.999997,37.540005 107.64,36.54 C108.280003,35.539995 108.72,34.0200102 108.96,31.98 L116.4,31.98 C116.239999,35.7400188 115.240009,38.5999902 113.4,40.56 C111.559991,42.5200098 108.66002,43.5 104.7,43.5 C101.699985,43.5 99.3600084,43.000005 97.68,42 C95.9999916,40.999995 94.760004,39.6800082 93.96,38.04 C93.159996,36.3999918 92.6700009,34.5600102 92.49,32.52 C92.3099991,30.4799898 92.22,28.4400102 92.22,26.4 C92.22,24.2399892 92.3699985,22.16001 92.67,20.16 C92.9700015,18.15999 93.5699955,16.3800078 94.47,14.82 C95.3700045,13.2599922 96.6599916,12.0200046 98.34,11.1 C100.020008,10.1799954 102.259986,9.72 105.06,9.72 C107.460012,9.72 109.429992,10.1099961 110.97,10.89 C112.510008,11.6700039 113.72,12.7699929 114.6,14.19 C115.480004,15.6100071 116.079998,17.3299899 116.4,19.35 C116.72,21.3700101 116.88,23.6199876 116.88,26.1 L116.88,27.96 L100.5,27.96 Z M121.2,0 L129.48,0 L129.48,13.56 L129.6,13.56 C130.480004,12.2799936 131.469994,11.3200032 132.57,10.68 C133.670005,10.0399968 134.999992,9.72 136.56,9.72 C139.960017,9.72 142.459992,11.0499867 144.06,13.71 C145.660008,16.3700133 146.46,20.69997 146.46,26.7 C146.46,32.70003 145.660008,36.999987 144.06,39.6 C142.459992,42.200013 139.960017,43.5 136.56,43.5 C134.879992,43.5 133.470006,43.200003 132.33,42.6 C131.189994,42 130.160005,40.9400076 129.24,39.42 L129.12,39.42 L129.12,42.84 L121.2,42.84 L121.2,0 Z M129.48,26.7 C129.48,30.2200176 129.749997,32.8699911 130.29,34.65 C130.830003,36.4300089 132.019991,37.32 133.86,37.32 C135.660009,37.32 136.829997,36.4300089 137.37,34.65 C137.910003,32.8699911 138.18,30.2200176 138.18,26.7 C138.18,23.1799824 137.910003,20.5300089 137.37,18.75 C136.829997,16.9699911 135.660009,16.08 133.86,16.08 C132.019991,16.08 130.830003,16.9699911 130.29,18.75 C129.749997,20.5300089 129.48,23.1799824 129.48,26.7 Z M158.4,26.7 C158.4,28.3400082 158.44,29.86 158.52,31.26 C158.6,32.660007 158.789998,33.86 159.09,34.86 C159.390002,35.86 159.839997,36.6399972 160.44,37.2 C161.040003,37.7600028 161.839995,38.04 162.84,38.04 C164.520008,38.04 165.679997,37.1600088 166.32,35.4 C166.960003,33.6399912 167.28,30.7400202 167.28,26.7 C167.28,22.6599798 166.960003,19.7600088 166.32,18 C165.679997,16.2399912 164.520008,15.36 162.84,15.36 C161.839995,15.36 161.040003,15.6399972 160.44,16.2 C159.839997,16.7600028 159.390002,17.539995 159.09,18.54 C158.789998,19.540005 158.6,20.739993 158.52,22.14 C158.44,23.540007 158.4,25.0599918 158.4,26.7 Z M150.12,26.7 C150.12,23.9399862 150.339998,21.5000106 150.78,19.38 C151.220002,17.2599894 151.939995,15.4900071 152.94,14.07 C153.940005,12.6499929 155.249992,11.5700037 156.87,10.83 C158.490008,10.0899963 160.479988,9.72 162.84,9.72 C165.320012,9.6799998 167.379992,10.0099965 169.02,10.71 C170.660008,11.4100035 171.959995,12.4799928 172.92,13.92 C173.880005,15.3600072 174.559998,17.1399894 174.96,19.26 C175.360002,21.3800106 175.56,23.8599858 175.56,26.7 C175.56,29.4600138 175.340002,31.8999894 174.9,34.02 C174.459998,36.1400106 173.740005,37.9099929 172.74,39.33 C171.739995,40.7500071 170.430008,41.7999966 168.81,42.48 C167.189992,43.1600034 165.200012,43.5 162.84,43.5 C160.359988,43.5400002 158.300008,43.2300033 156.66,42.57 C155.019992,41.9099967 153.720005,40.8700071 152.76,39.45 C151.799995,38.0299929 151.12,36.2500107 150.72,34.11 C150.319998,31.9699893 150.12,29.500014 150.12,26.7 Z M187.2,26.7 C187.2,28.3400082 187.24,29.86 187.32,31.26 C187.4,32.660007 187.589998,33.86 187.89,34.86 C188.190001,35.86 188.639997,36.6399972 189.24,37.2 C189.840003,37.7600028 190.639995,38.04 191.64,38.04 C193.320008,38.04 194.479997,37.1600088 195.12,35.4 C195.760003,33.6399912 196.08,30.7400202 196.08,26.7 C196.08,22.6599798 195.760003,19.7600088 195.12,18 C194.479997,16.2399912 193.320008,15.36 191.64,15.36 C190.639995,15.36 189.840003,15.6399972 189.24,16.2 C188.639997,16.7600028 188.190001,17.539995 187.89,18.54 C187.589998,19.540005 187.4,20.739993 187.32,22.14 C187.24,23.540007 187.2,25.0599918 187.2,26.7 Z M178.92,26.7 C178.92,23.9399862 179.139998,21.5000106 179.58,19.38 C180.020002,17.2599894 180.739995,15.4900071 181.74,14.07 C182.740005,12.6499929 184.049992,11.5700037 185.67,10.83 C187.290008,10.0899963 189.279988,9.72 191.64,9.72 C194.120012,9.6799998 196.179992,10.0099965 197.82,10.71 C199.460008,11.4100035 200.759995,12.4799928 201.72,13.92 C202.680005,15.3600072 203.359998,17.1399894 203.76,19.26 C204.160002,21.3800106 204.36,23.8599858 204.36,26.7 C204.36,29.4600138 204.140002,31.8999894 203.7,34.02 C203.259998,36.1400106 202.540005,37.9099929 201.54,39.33 C200.539995,40.7500071 199.230008,41.7999966 197.61,42.48 C195.989992,43.1600034 194.000012,43.5 191.64,43.5 C189.159988,43.5400002 187.100008,43.2300033 185.46,42.57 C183.819992,41.9099967 182.520005,40.8700071 181.56,39.45 C180.599995,38.0299929 179.92,36.2500107 179.52,34.11 C179.119998,31.9699893 178.92,29.500014 178.92,26.7 Z M217.38,0 L217.38,22.62 L217.5,22.62 L225.84,10.56 L234.96,10.56 L225.66,23.28 L236.34,42.84 L227.22,42.84 L220.32,29.58 L217.38,33.42 L217.38,42.84 L209.1,42.84 L209.1,0 L217.38,0 Z M236.4,47.7 L242.7,47.7 L242.7,6 L236.4,6 L236.4,0 L250.14,0 L250.14,53.7 L236.4,53.7 L236.4,47.7 Z" id="[notebook]"></path>
                <path d="M95.238,68.066 C95.238,67.1713289 95.1500009,66.5626683 94.974,66.24 C94.7979991,65.9173317 94.512002,65.756 94.116,65.756 C93.8079985,65.756 93.5623342,65.8366659 93.379,65.998 C93.1956658,66.1593341 93.0563338,66.4453313 92.961,66.856 C92.8656662,67.2666687 92.8033335,67.8203299 92.774,68.517 C92.7446665,69.2136701 92.73,70.0899947 92.73,71.146 C92.73,72.2020053 92.7446665,73.0783299 92.774,73.775 C92.8033335,74.4716701 92.8656662,75.0253313 92.961,75.436 C93.0563338,75.8466687 93.1956658,76.1326659 93.379,76.294 C93.5623342,76.4553341 93.8079985,76.536 94.116,76.536 C94.3653346,76.536 94.5706659,76.4736673 94.732,76.349 C94.8933341,76.2243327 95.0179996,76.0153348 95.106,75.722 C95.1940004,75.4286652 95.2563332,75.0363358 95.293,74.545 C95.3296668,74.0536642 95.348,73.4340037 95.348,72.686 L99.308,72.686 L99.308,73.852 C99.308,74.9520055 99.1613348,75.8539965 98.868,76.558 C98.5746652,77.2620035 98.1860024,77.8156647 97.702,78.219 C97.2179976,78.6223354 96.6643365,78.893666 96.041,79.033 C95.4176636,79.172334 94.7760033,79.242 94.116,79.242 C92.9719943,79.242 92.033337,79.1026681 91.3,78.824 C90.566663,78.5453319 89.9946687,78.0796699 89.584,77.427 C89.1733313,76.7743301 88.8910008,75.9310052 88.737,74.897 C88.5829992,73.8629948 88.506,72.612674 88.506,71.146 C88.506,69.6499925 88.5976658,68.3813385 88.781,67.34 C88.9643342,66.2986615 89.2759978,65.4553366 89.716,64.81 C90.1560022,64.1646634 90.7353297,63.6990014 91.454,63.413 C92.1726703,63.1269986 93.0599947,62.984 94.116,62.984 C95.0400046,62.984 95.8246634,63.1013322 96.47,63.336 C97.1153366,63.5706678 97.6396647,63.9043312 98.043,64.337 C98.4463353,64.7696688 98.7396658,65.2903303 98.923,65.899 C99.1063343,66.5076697 99.198,67.1933295 99.198,67.956 L99.198,68.946 L95.238,68.946 L95.238,68.066 Z M104.698,63.292 L104.698,74.622 C104.698,75.3846705 104.807999,75.8943321 105.028,76.151 C105.248001,76.407668 105.548665,76.536 105.93,76.536 C106.311335,76.536 106.611999,76.407668 106.832,76.151 C107.052001,75.8943321 107.162,75.3846705 107.162,74.622 L107.162,63.292 L111.254,63.292 L111.254,73.588 C111.254,74.6880055 111.136668,75.604663 110.902,76.338 C110.667332,77.071337 110.326336,77.6579978 109.879,78.098 C109.431664,78.5380022 108.878003,78.8386659 108.218,79 C107.557997,79.1613341 106.795338,79.242 105.93,79.242 C105.079329,79.242 104.320337,79.1613341 103.653,79 C102.985663,78.8386659 102.428336,78.5380022 101.981,78.098 C101.533664,77.6579978 101.192668,77.071337 100.958,76.338 C100.723332,75.604663 100.606,74.6880055 100.606,73.588 L100.606,63.292 L104.698,63.292 Z M119.13,67.824 L119.13,67.45 C119.13,66.9806643 119.034668,66.5810017 118.844,66.251 C118.653332,65.9209984 118.360002,65.756 117.964,65.756 C117.523998,65.756 117.201334,65.8989986 116.996,66.185 C116.790666,66.4710014 116.688,66.7899982 116.688,67.142 C116.688,67.6553359 116.852998,68.0623318 117.183,68.363 C117.513002,68.6636682 117.927331,68.9239989 118.426,69.144 C118.924669,69.3640011 119.459997,69.5876655 120.032,69.815 C120.604003,70.0423345 121.139331,70.3393315 121.638,70.706 C122.136669,71.0726685 122.550998,71.552997 122.881,72.147 C123.211002,72.741003 123.376,73.5146619 123.376,74.468 C123.376,76.1400084 122.899338,77.3536629 121.946,78.109 C120.992662,78.8643371 119.614009,79.242 117.81,79.242 C116.959329,79.242 116.20767,79.172334 115.555,79.033 C114.90233,78.893666 114.352336,78.6516684 113.905,78.307 C113.457664,77.9623316 113.116668,77.5113361 112.882,76.954 C112.647332,76.3966639 112.53,75.7073374 112.53,74.886 L112.53,74.336 L116.49,74.336 L116.49,74.71 C116.49,75.38467 116.614665,75.8576653 116.864,76.129 C117.113335,76.4003347 117.435998,76.536 117.832,76.536 C118.257335,76.536 118.583666,76.3893348 118.811,76.096 C119.038334,75.8026652 119.152,75.4433355 119.152,75.018 C119.152,74.5046641 118.994335,74.0976682 118.679,73.797 C118.363665,73.4963318 117.967669,73.2396677 117.491,73.027 C117.014331,72.8143323 116.497336,72.5980011 115.94,72.378 C115.382664,72.1579989 114.865669,71.8720018 114.389,71.52 C113.912331,71.1679982 113.516335,70.7060029 113.201,70.134 C112.885665,69.5619971 112.728,68.8140046 112.728,67.89 C112.728,66.2913253 113.153329,65.0740042 114.004,64.238 C114.854671,63.4019958 116.145325,62.984 117.876,62.984 C119.665342,62.984 120.959663,63.3689962 121.759,64.139 C122.558337,64.9090039 122.958,66.1373249 122.958,67.824 L119.13,67.824 Z M126.896,66.768 L123.86,66.768 L123.86,63.292 L134.068,63.292 L134.068,66.768 L130.988,66.768 L130.988,79 L126.896,79 L126.896,66.768 Z M138.754,71.146 C138.754,72.2020053 138.768667,73.0783299 138.798,73.775 C138.827333,74.4716701 138.889666,75.0253313 138.985,75.436 C139.080334,75.8466687 139.219666,76.1326659 139.403,76.294 C139.586334,76.4553341 139.831998,76.536 140.14,76.536 C140.448002,76.536 140.693666,76.4553341 140.877,76.294 C141.060334,76.1326659 141.199666,75.8466687 141.295,75.436 C141.390334,75.0253313 141.452667,74.4716701 141.482,73.775 C141.511333,73.0783299 141.526,72.2020053 141.526,71.146 C141.526,70.0899947 141.511333,69.2136701 141.482,68.517 C141.452667,67.8203299 141.390334,67.2666687 141.295,66.856 C141.199666,66.4453313 141.060334,66.1593341 140.877,65.998 C140.693666,65.8366659 140.448002,65.756 140.14,65.756 C139.831998,65.756 139.586334,65.8366659 139.403,65.998 C139.219666,66.1593341 139.080334,66.4453313 138.985,66.856 C138.889666,67.2666687 138.827333,67.8203299 138.798,68.517 C138.768667,69.2136701 138.754,70.0899947 138.754,71.146 Z M134.53,71.146 C134.53,69.679326 134.625332,68.4290052 134.816,67.395 C135.006668,66.3609948 135.321998,65.5176699 135.762,64.865 C136.202002,64.2123301 136.78133,63.7356682 137.5,63.435 C138.21867,63.1343318 139.098661,62.984 140.14,62.984 C141.181339,62.984 142.06133,63.1343318 142.78,63.435 C143.49867,63.7356682 144.077998,64.2123301 144.518,64.865 C144.958002,65.5176699 145.273332,66.3609948 145.464,67.395 C145.654668,68.4290052 145.75,69.679326 145.75,71.146 C145.75,72.612674 145.654668,73.8629948 145.464,74.897 C145.273332,75.9310052 144.958002,76.7743301 144.518,77.427 C144.077998,78.0796699 143.49867,78.5453319 142.78,78.824 C142.06133,79.1026681 141.181339,79.242 140.14,79.242 C139.098661,79.242 138.21867,79.1026681 137.5,78.824 C136.78133,78.5453319 136.202002,78.0796699 135.762,77.427 C135.321998,76.7743301 135.006668,75.9310052 134.816,74.897 C134.625332,73.8629948 134.53,72.612674 134.53,71.146 Z M147.07,63.292 L152.922,63.292 L154.572,72.598 L154.616,72.598 L156.266,63.292 L162.118,63.292 L162.118,79 L158.29,79 L158.29,67.296 L158.246,67.296 L156.068,79 L153.12,79 L150.942,67.296 L150.898,67.296 L150.898,79 L147.07,79 L147.07,63.292 Z" id="CUSTOM"></path>
            </g>
        </g>
    </g>
</svg>