<?xml version="1.0" encoding="UTF-8"?>
<svg width="39px" height="33px" viewBox="0 0 39 33" version="1.1" xmlns="http://www.w3.org/2000/svg" xmlns:xlink="http://www.w3.org/1999/xlink">
    <!-- Generator: Sketch 55.1 (78136) - https://sketchapp.com -->
    <title>“ 2</title>
    <desc>Created with Sketch.</desc>
    <g id="Page-1" stroke="none" stroke-width="1" fill="none" fill-rule="evenodd">
        <g id="Notebook-Copy" transform="translate(-817.000000, -2311.000000)" fill="#FFCF12" fill-rule="nonzero">
            <g id="Group-16" transform="translate(0.000000, 1787.000000)">
                <g id="Group-18" transform="translate(760.000000, 491.000000)">
                    <g id="“-2" transform="translate(57.022461, 33.562500)">
                        <path d="M38.5195312,4.921875 C32.9596076,7.65626367 30.1796875,10.8691222 30.1796875,14.5605469 C32.549491,14.8339857 34.5091068,15.8024005 36.0585938,17.4658203 C37.6080807,19.1292401 38.3828125,21.0546766 38.3828125,23.2421875 C38.3828125,25.5664179 37.6308669,27.5260337 36.1269531,29.1210938 C34.6230394,30.7161538 32.7317822,31.5136719 30.453125,31.5136719 C27.9010289,31.5136719 25.6907646,30.4768984 23.8222656,28.4033203 C21.9537667,26.3297422 21.0195312,23.8118638 21.0195312,20.8496094 C21.0195312,11.9628462 25.9869295,5.0130459 35.921875,0 L38.5195312,4.921875 Z M17.5,4.921875 C11.8945032,7.65626367 9.09179688,10.8691222 9.09179688,14.5605469 C11.5071735,14.8339857 13.4895756,15.8024005 15.0390625,17.4658203 C16.5885494,19.1292401 17.3632812,21.0546766 17.3632812,23.2421875 C17.3632812,25.5664179 16.5999425,27.5260337 15.0732422,29.1210938 C13.5465418,30.7161538 11.6438916,31.5136719 9.36523438,31.5136719 C6.81313828,31.5136719 4.61426704,30.4768984 2.76855469,28.4033203 C0.922842334,26.3297422 0,23.8118638 0,20.8496094 C0,11.9628462 4.94461201,5.0130459 14.8339844,0 L17.5,4.921875 Z" id="“"></path>
                    </g>
                </g>
            </g>
        </g>
    </g>
</svg>